<!-- Created with Inkscape (http://www.inkscape.org/) -->
<svg width="100%" height="100%" version="1.1" viewBox="0 0 16 8" xmlns="http://www.w3.org/2000/svg">
 <g transform="translate(-.07 -292)" style="fill:#552200;stroke-linecap:round;stroke-width:.2">
  <path id="pathtwo" d="m2 296c-0.2-0.8-1-1-1-0.4-0.04 1 1 0.9 2 0.9 0.6 0.08 1 0.5 2 0.3 0.6-0.3 1 0.5 2 0.5 0.6-0.3 0.9 0.5 1 0.6 0.8 0.3 2 0.4 2 0.3 0.7-0.05 1-0.9 2-0.6 1 0.1 2 0.8 3 0.1 0.4-0.3 0.9-0.3 1-0.6-0.7 0.3-1 0.4-2 0.4-1 0.3-2-0.5-3-0.09-1 0.4-2 0.6-3-0.1-0.5-0.4-2-0.1-2-0.9 0.4-0.9 1 0.08 2-0.6 0.6-0.4 1-0.6 2-1 0.7-0.3 1 0.1 2 0.06 0.5-4e-3 0.9-0.3 1-0.6 0.6-0.5 1-0.4 2-0.6 0.3-0.1 0.9-0.1 1-0.4-0.5-0.3-1 0.4-1 0.09-0.7-0.04-1 0.3-2 0.8-0.9 0.5-2 0.4-3 0.5-0.6-0.1-1 0.09-2 0.4-0.5 0.08-0.8 0.8-1 0.6-0.5 0.05-1 0.1-1 0.8-0.5 0.5-1 0.3-2 0.1" style="fill:#aa4400;stroke-width:.2"/>
  <path d="m5 295c-0.7-0.2-1 0.5-2-0.04-0.07-0.8-1-0.9-1-0.3-0.2 0.8 0.9 0.9 1 0.8 0.9-0.3 2 0.3 2 0.3 0.7 0.06 1 0.3 2-0.09 0.7-0.1 1 0.1 2 0.6 1 0.5 5-0.5 5-2 0.7-0.8 0.3-0.9 1-1 0.2 0.07 1-0.4 0.5-0.4-1-0.03-2 0.3-2 1-0.4 0.8-1 1-2 1-0.9 0.5-1-6e-3 -2-0.3-0.6-0.3-1 0.06-2-0.4-0.1-0.9 0.7-1 1-1 0.5-0.4 1-1 1-1-0.7-0.4-1 0.06-2 0.3-1 0.4-2 1-3 1-0.8-0.2-1-0.9-2-0.8 1 0.5 2 1 4 1 0.7-0.1 1-0.4 2-0.6 0.2-0.09 1-0.6 0.8 0.05-0.6 0.4-1 0.9-1 1-0.3 0.7-1 0.4-1 0.2-0.1-3e-3 0.1-0.06 0 0" style="fill:#552200;stroke-linecap:round;stroke-width:.2"/>
 </g>
</svg>
