<?xml version="1.0" encoding="UTF-8" standalone="no"?>
<!-- Created with Inkscape (http://www.inkscape.org/) -->

<svg
   xmlns:dc="http://purl.org/dc/elements/1.1/"
   xmlns:cc="http://creativecommons.org/ns#"
   xmlns:rdf="http://www.w3.org/1999/02/22-rdf-syntax-ns#"
   xmlns:svg="http://www.w3.org/2000/svg"
   xmlns="http://www.w3.org/2000/svg"
   xmlns:sodipodi="http://sodipodi.sourceforge.net/DTD/sodipodi-0.dtd"
   xmlns:inkscape="http://www.inkscape.org/namespaces/inkscape"
   width="100"
   height="40"
   version="1.1"
   viewBox="0 0 26.666667 10.909091"
   id="svg17"
   sodipodi:docname="favicon.svg"
   inkscape:version="0.92.3 (2405546, 2018-03-11)">
  <metadata
     id="metadata23">
    <rdf:RDF>
      <cc:Work
         rdf:about="">
        <dc:format>image/svg+xml</dc:format>
        <dc:type
           rdf:resource="http://purl.org/dc/dcmitype/StillImage" />
        <dc:title></dc:title>
      </cc:Work>
    </rdf:RDF>
  </metadata>
  <defs
     id="defs21" />
  <sodipodi:namedview
     pagecolor="#ffffff"
     bordercolor="#666666"
     borderopacity="1"
     objecttolerance="10"
     gridtolerance="10"
     guidetolerance="10"
     inkscape:pageopacity="0"
     inkscape:pageshadow="2"
     inkscape:window-width="1600"
     inkscape:window-height="837"
     id="namedview19"
     showgrid="false"
     inkscape:zoom="19.066667"
     inkscape:cx="31.625874"
     inkscape:cy="11.026224"
     inkscape:window-x="-8"
     inkscape:window-y="-8"
     inkscape:window-maximized="1"
     inkscape:current-layer="g15" />
  <g
     transform="translate(-0.07,-287.09091)"
     style="fill:#552200;stroke-width:0.2;stroke-linecap:round"
     id="g15">
    <g
       id="g27">
      <path
         inkscape:connector-curvature="0"
         style="fill:#aa4400;stroke-width:0.2265842"
         d="m 2,295.50691 c -0.2,-0.77011 -1,-1.15516 -1,-0.38505 -0.04,1.02681 1,0.89845 2,0.89845 0.6,0.077 1,0.51341 2,0.25671 0.6,-0.25671 1,0.5134 2,0.5134 0.6,-0.2567 0.9,0.5134 1,0.64176 0.8,0.2567 2,0.38505 2,0.2567 0.7,-0.0513 1,-0.89846 2,-0.64176 1,0.11552 2,0.77011 3,0.12835 0.4,-0.2567 0.9,-0.2567 1,-0.64175 -0.7,0.2567 -1,0.38505 -2,0.38505 -1,0.2567 -2,-0.5134 -3,-0.0898 -1,0.38505 -2,0.64175 -3,-0.10268 -0.5,-0.38506 -2,-0.10269 -2,-0.89846 0.4,-0.89846 1,0.077 2,-0.64176 0.6,-0.38505 1,-0.64175 2,-1.15516 0.7,-0.2567 1,0.12836 2,0.0642 0.5,-0.004 0.9,-0.2567 1,-0.64176 0.6,-0.5134 1,-0.38505 2,-0.64175 0.3,-0.11552 0.9,-0.12835 1,-0.38505 -0.5,-0.25671 -1,0.38505 -1,0.0898 -0.7,-0.0385 -1,0.2567 -2,0.77011 -0.9,0.5134 -2,0.38505 -3,0.5134 -0.6,-0.11551 -1,0.0898 -2,0.38506 -0.5,0.077 -0.8,0.7701 -1,0.64175 -0.5,0.0513 -1,0.12835 -1,0.77011 -0.5,0.5134 -1,0.2567 -2,0.10268"
         id="pathtwo" />
      <path
         inkscape:connector-curvature="0"
         id="path11"
         style="fill:#552200;stroke-width:0.24718502;stroke-linecap:round"
         d="m 4.6721643,295.37069 c -0.7286164,-0.19079 -1.1622134,0.49233 -2.3902988,-0.0389 -0.07314,-0.76547 -1.2527844,-0.91503 -1.2116154,-0.27531 -0.18798073,0.78936 0.8967098,0.9476 1.2445503,0.7871 0.9330645,-0.3427 2.4067642,0.29474 2.4067642,0.29474 0.7203805,0.0628 1.2116159,0.27533 2.3820638,-0.0891 0.7072073,-0.14191 1.2033814,0.14738 2.4232306,0.55065 1.228083,0.53121 4.742719,-0.5108 4.665322,-1.71346 0.662746,-0.83277 0.298438,-0.92815 1.129279,-1.00413 0.243149,0.0679 1.170446,-0.36439 0.450064,-0.42722 -1.076448,-0.0305 -2.365597,0.34496 -2.299726,1.36851 -0.425364,0.81106 -1.121044,1.13205 -2.291492,1.49644 -0.924831,0.47064 -1.1943215,-0.006 -2.4067637,-0.29476 -0.6181589,-0.32957 -1.1902272,0.0569 -2.4149979,-0.42271 -0.1288514,-0.88907 0.7485031,-1.35537 1.1045776,-1.38793 0.4500647,-0.42723 1.0105872,-0.99326 1.1045775,-1.38794 -0.7450835,-0.44667 -1.1902274,0.0569 -2.3680656,0.30658 -1.1704471,0.36439 -2.2914924,1.49644 -3.4866401,1.47701 -0.8473077,-0.17995 -1.2527845,-0.91504 -2.43969891,-0.80653 1.22808291,0.53121 2.45616621,1.06243 3.64308081,0.95389 0.7096772,-0.10345 1.170447,-0.36439 2.3491277,-0.60082 0.2332659,-0.0856 1.1539797,-0.6203 0.839074,0.052 C 6.5358215,294.64688 5.9670651,295.08497 6,295.59676 c -0.3149057,0.67225 -1.0517559,0.35354 -1.1786807,0.23643 -0.1195256,-0.003 0.1154006,-0.062 0,0" />
    </g>
  </g>
</svg>
